<?xml version="1.0" encoding="utf-8"?>
<!-- Generator: Adobe Illustrator 16.0.0, SVG Export Plug-In . SVG Version: 6.00 Build 0)  -->
<!DOCTYPE svg PUBLIC "-//W3C//DTD SVG 1.1//EN" "http://www.w3.org/Graphics/SVG/1.1/DTD/svg11.dtd">
<svg version="1.1" id="Ebene_1" xmlns="http://www.w3.org/2000/svg" xmlns:xlink="http://www.w3.org/1999/xlink" x="0px" y="0px"
	 width="60px" height="60px" viewBox="0 0 60 60" enable-background="new 0 0 60 60" xml:space="preserve">
<g>
	<path fill="#FFFFFF" d="M4.833,35.577C2.885,38.436,1.261,41.45,0,44.581c1.864,0.437,3.748,0.757,5.644,0.969
		c0.221,0.024,0.442,0.058,0.664,0.079c0.633,1.802,1.655,3.498,3.1,4.94c1.417,1.416,3.08,2.429,4.848,3.066
		c0.025,0.26,0.063,0.52,0.093,0.78c0.219,1.874,0.537,3.74,0.975,5.585c0.024-0.011,0.05-0.019,0.074-0.03
		c3.131-1.258,6.146-2.883,9.006-4.828c-4.664-1.35-8.913-3.83-12.325-7.241C8.665,44.487,6.182,40.241,4.833,35.577z"/>
	<path fill="#FFFFFF" d="M57.037,15.153c-0.13,0.374-0.258,0.75-0.405,1.118c-0.894,2.216-1.963,4.395-3.179,6.471l-0.772,1.316
		c0.667,6.263-1.368,12.756-6.17,17.557c-3.81,3.808-8.688,5.878-13.669,6.246c0.691-0.756,1.364-1.522,2-2.308
		c-0.251-1.797-0.693-3.566-1.353-5.278c2.702-1.433,5.296-3.14,7.738-5.126c0.913-0.738,1.794-1.53,2.662-2.348
		c0.349-0.329,0.703-0.65,1.043-0.99c2.964-2.965,5.459-6.222,7.484-9.676c1.197-2.042,2.232-4.152,3.102-6.313
		c0.281-0.697,0.508-1.408,0.757-2.115c1.421-4.081,2.303-8.308,2.588-12.574c0.006-0.037,0.006-0.074,0.01-0.11
		c-4.321,0.28-8.602,1.173-12.732,2.617c-0.668,0.232-1.341,0.443-2,0.707c-1.543,0.618-3.06,1.325-4.546,2.11
		c-4.145,2.187-8.035,5.015-11.523,8.501c-0.313,0.313-0.608,0.637-0.91,0.957c-0.913,0.964-1.784,1.951-2.602,2.968
		c-1.925,2.394-3.591,4.93-4.986,7.569c-1.673-0.631-3.397-1.06-5.146-1.304c-1.325,1.07-2.61,2.214-3.841,3.444
		c-0.242,0.244-0.472,0.498-0.707,0.745c-0.899-6.473,1.114-13.27,6.09-18.246c5.989-5.983,14.608-7.71,22.124-5.199l0.94-0.496
		c1.541-0.814,3.108-1.541,4.66-2.162c0.324-0.13,0.655-0.24,0.984-0.354C34.361-2.239,21.524-0.545,12.927,8.048
		C5.811,15.162,3.423,25.192,5.711,34.29c1.173,4.675,3.559,9.107,7.216,12.765c3.657,3.653,8.091,6.037,12.765,7.211
		c9.104,2.286,19.139-0.099,26.257-7.214C60.592,38.414,62.257,25.494,57.037,15.153z"/>
</g>
</svg>
